<mxfile host="Electron" agent="Mozilla/5.0 (Macintosh; Intel Mac OS X 10_15_7) AppleWebKit/537.36 (KHTML, like Gecko) draw.io/24.7.5 Chrome/126.0.6478.183 Electron/31.3.0 Safari/537.36" version="24.7.5">
  <diagram name="Page-1" id="aVZFhbfy4G75VK8VD-a_">
    <mxGraphModel dx="1242" dy="820" grid="1" gridSize="10" guides="1" tooltips="1" connect="1" arrows="1" fold="1" page="1" pageScale="1" pageWidth="1654" pageHeight="1169" math="0" shadow="0">
      <root>
        <mxCell id="0" />
        <mxCell id="1" parent="0" />
        <mxCell id="yYIdH99bXLI75fuvd7w9-3" style="edgeStyle=orthogonalEdgeStyle;rounded=0;orthogonalLoop=1;jettySize=auto;html=1;entryX=0;entryY=0.5;entryDx=0;entryDy=0;" edge="1" parent="1" source="yYIdH99bXLI75fuvd7w9-1" target="yYIdH99bXLI75fuvd7w9-2">
          <mxGeometry relative="1" as="geometry" />
        </mxCell>
        <mxCell id="yYIdH99bXLI75fuvd7w9-1" value="Generate response" style="rounded=0;whiteSpace=wrap;html=1;" vertex="1" parent="1">
          <mxGeometry x="400" y="280" width="120" height="60" as="geometry" />
        </mxCell>
        <mxCell id="yYIdH99bXLI75fuvd7w9-13" style="edgeStyle=orthogonalEdgeStyle;rounded=0;orthogonalLoop=1;jettySize=auto;html=1;entryX=0;entryY=0.5;entryDx=0;entryDy=0;" edge="1" parent="1" source="yYIdH99bXLI75fuvd7w9-2" target="yYIdH99bXLI75fuvd7w9-12">
          <mxGeometry relative="1" as="geometry" />
        </mxCell>
        <mxCell id="yYIdH99bXLI75fuvd7w9-2" value="Review response" style="rounded=0;whiteSpace=wrap;html=1;" vertex="1" parent="1">
          <mxGeometry x="600" y="280" width="120" height="60" as="geometry" />
        </mxCell>
        <mxCell id="yYIdH99bXLI75fuvd7w9-15" style="edgeStyle=orthogonalEdgeStyle;rounded=0;orthogonalLoop=1;jettySize=auto;html=1;entryX=0.5;entryY=0;entryDx=0;entryDy=0;exitX=0.5;exitY=0;exitDx=0;exitDy=0;" edge="1" parent="1" source="yYIdH99bXLI75fuvd7w9-4" target="yYIdH99bXLI75fuvd7w9-2">
          <mxGeometry relative="1" as="geometry">
            <Array as="points">
              <mxPoint x="980" y="200" />
              <mxPoint x="660" y="200" />
            </Array>
          </mxGeometry>
        </mxCell>
        <mxCell id="yYIdH99bXLI75fuvd7w9-4" value="Improve content" style="rounded=0;whiteSpace=wrap;html=1;" vertex="1" parent="1">
          <mxGeometry x="920" y="280" width="120" height="60" as="geometry" />
        </mxCell>
        <mxCell id="yYIdH99bXLI75fuvd7w9-10" style="edgeStyle=orthogonalEdgeStyle;rounded=0;orthogonalLoop=1;jettySize=auto;html=1;entryX=0;entryY=0.5;entryDx=0;entryDy=0;" edge="1" parent="1" source="yYIdH99bXLI75fuvd7w9-9" target="yYIdH99bXLI75fuvd7w9-1">
          <mxGeometry relative="1" as="geometry" />
        </mxCell>
        <mxCell id="yYIdH99bXLI75fuvd7w9-9" value="Input" style="rounded=1;whiteSpace=wrap;html=1;" vertex="1" parent="1">
          <mxGeometry x="260" y="295" width="100" height="30" as="geometry" />
        </mxCell>
        <mxCell id="yYIdH99bXLI75fuvd7w9-11" value="Final response" style="rounded=1;whiteSpace=wrap;html=1;" vertex="1" parent="1">
          <mxGeometry x="930" y="390" width="100" height="30" as="geometry" />
        </mxCell>
        <mxCell id="yYIdH99bXLI75fuvd7w9-14" style="edgeStyle=orthogonalEdgeStyle;rounded=0;orthogonalLoop=1;jettySize=auto;html=1;entryX=0;entryY=0.5;entryDx=0;entryDy=0;" edge="1" parent="1" source="yYIdH99bXLI75fuvd7w9-12" target="yYIdH99bXLI75fuvd7w9-4">
          <mxGeometry relative="1" as="geometry" />
        </mxCell>
        <mxCell id="yYIdH99bXLI75fuvd7w9-18" value="Yes" style="edgeLabel;html=1;align=center;verticalAlign=middle;resizable=0;points=[];" vertex="1" connectable="0" parent="yYIdH99bXLI75fuvd7w9-14">
          <mxGeometry x="-0.05" y="-1" relative="1" as="geometry">
            <mxPoint as="offset" />
          </mxGeometry>
        </mxCell>
        <mxCell id="yYIdH99bXLI75fuvd7w9-16" style="edgeStyle=orthogonalEdgeStyle;rounded=0;orthogonalLoop=1;jettySize=auto;html=1;entryX=0;entryY=0.5;entryDx=0;entryDy=0;exitX=0.5;exitY=1;exitDx=0;exitDy=0;" edge="1" parent="1" source="yYIdH99bXLI75fuvd7w9-12" target="yYIdH99bXLI75fuvd7w9-11">
          <mxGeometry relative="1" as="geometry" />
        </mxCell>
        <mxCell id="yYIdH99bXLI75fuvd7w9-17" value="No" style="edgeLabel;html=1;align=center;verticalAlign=middle;resizable=0;points=[];" vertex="1" connectable="0" parent="yYIdH99bXLI75fuvd7w9-16">
          <mxGeometry x="-0.0222" y="-1" relative="1" as="geometry">
            <mxPoint x="45" y="-1" as="offset" />
          </mxGeometry>
        </mxCell>
        <mxCell id="yYIdH99bXLI75fuvd7w9-12" value="can&lt;div&gt;improve?&lt;/div&gt;" style="rhombus;whiteSpace=wrap;html=1;" vertex="1" parent="1">
          <mxGeometry x="760" y="270" width="80" height="80" as="geometry" />
        </mxCell>
      </root>
    </mxGraphModel>
  </diagram>
</mxfile>
